<?xml version="1.0" encoding="utf-8"?>
<!-- Generator: Adobe Illustrator 27.5.0, SVG Export Plug-In . SVG Version: 6.00 Build 0)  -->
<svg version="1.1" xmlns="http://www.w3.org/2000/svg" xmlns:xlink="http://www.w3.org/1999/xlink" x="0px" y="0px"
	 viewBox="0 0 841.89 566.929" style="enable-background:new 0 0 841.89 566.929;" xml:space="preserve">
<g id="BG">
	<rect y="0" style="fill:#FFFFFF;" width="841.89" height="566.929"/>
</g>
<g id="graphics">
	<g>
		<path style="fill:#818282;" d="M316.378,430.229h-9.568l-5.605-25.972l-5.604,25.972h-9.568l-9.979-36.36h9.295l5.741,25.151
			l5.194-25.151h9.705l4.921,25.151l5.058-21.87c0.547-2.188,2.003-3.281,4.374-3.281h6.015L316.378,430.229z"/>
		<path style="fill:#818282;" d="M350.454,428.725c-1.913,1.004-3.942,1.617-6.082,1.846c-2.143,0.227-4.033,0.342-5.673,0.342
			c-3.281,0-6.151-0.889-8.612-2.666c-2.46-1.776-3.69-4.716-3.69-8.816c0-3.827,1.115-6.56,3.349-8.201
			c2.232-1.641,5.079-2.734,8.544-3.28c0.455,0,1.001-0.068,1.64-0.205c0.637-0.137,1.367-0.25,2.188-0.342
			c4.009-0.547,6.015-1.73,6.015-3.555c0-1.366-0.707-2.255-2.119-2.665c-1.414-0.41-2.712-0.615-3.896-0.615
			c-1.277,0-2.416,0.184-3.417,0.547c-1.004,0.365-1.732,1.049-2.188,2.051h-9.158c0.363-2.824,1.641-5.147,3.827-6.972
			c2.461-2.096,5.968-3.144,10.525-3.144c5.103,0,8.93,0.867,11.482,2.597c2.642,1.824,3.964,4.374,3.964,7.654v12.439
			c0,3.646-0.662,6.493-1.982,8.543C353.849,426.333,352.276,427.815,350.454,428.725z M348.268,411.912
			c-1.277,0.639-3.055,1.229-5.331,1.776l-3.145,0.684c-1.64,0.457-2.825,1.049-3.554,1.777c-0.639,1.004-0.957,2.006-0.957,3.007
			c0,1.367,0.41,2.461,1.23,3.281c0.82,0.73,2.004,1.093,3.554,1.093c2.551,0,4.556-0.728,6.015-2.186
			c1.457-1.457,2.188-3.462,2.188-6.015V411.912z"/>
		<path style="fill:#818282;" d="M376.048,430.229c-3.008,0.182-6.267,0.137-9.773-0.137c-3.51-0.273-5.263-2.505-5.263-6.698
			v-40.186h4.921c1.183,0,2.232,0.457,3.144,1.366c0.91,0.912,1.367,2.006,1.367,3.281v6.15h5.604v1.914
			c0,1.367-0.457,2.484-1.367,3.349c-0.912,0.867-2.006,1.299-3.28,1.299h-0.957v20.23c0,1.551,0.91,2.323,2.733,2.323h2.871
			V430.229z"/>
		<path style="fill:#818282;" d="M403.556,419.02h6.835c-1.004,3.828-2.918,6.745-5.741,8.749c-2.826,2.097-6.38,3.144-10.662,3.144
			c-5.194,0-9.25-1.686-12.166-5.058c-2.917-3.28-4.374-7.973-4.374-14.079c0-5.831,1.412-10.389,4.237-13.669
			c2.916-3.371,6.972-5.058,12.166-5.058c5.468,0,9.705,1.64,12.712,4.921c2.916,3.372,4.375,8.064,4.375,14.079
			c0,0.365,0,0.684,0,0.957c0,0.273,0,0.457,0,0.546c0,0.457-0.047,0.775-0.137,0.957h-23.648c0.09,2.826,0.773,4.921,2.051,6.288
			c1.183,1.459,2.96,2.186,5.331,2.186c1.548,0,2.87-0.317,3.964-0.956c0.273-0.09,0.523-0.25,0.752-0.479
			c0.227-0.227,0.478-0.478,0.752-0.752c0.089-0.273,0.431-0.637,1.024-1.094C401.618,419.248,402.462,419.02,403.556,419.02z
			 M387.152,408.358h13.942c-0.184-2.46-0.819-4.282-1.913-5.467c-1.185-1.275-2.871-1.914-5.058-1.914
			c-2.006,0-3.647,0.639-4.921,1.914C387.926,404.167,387.242,405.989,387.152,408.358z"/>
		<path style="fill:#818282;" d="M413.842,430.229v-17.633c0-3.555,0.523-6.538,1.572-8.954c1.045-2.413,2.48-4.35,4.305-5.809
			c1.73-1.367,3.76-2.369,6.084-3.008c2.322-0.637,4.715-0.957,7.176-0.957c0.182,0,0.41,0,0.684,0c0.273,0,0.5,0,0.684,0v9.705
			h-3.145c-2.645,0-4.604,0.639-5.877,1.914c-1.277,1.277-1.914,3.28-1.914,6.015v18.727H413.842z"/>
		<path style="fill:#818282;" d="M460.76,383.07h4.646c1.275,0,2.369,0.478,3.281,1.435c0.91,0.957,1.367,2.029,1.367,3.213v26.654
			c0,6.472-1.869,10.846-5.605,13.123c-3.736,2.278-7.791,3.417-12.164,3.417c-2.371,0-4.695-0.389-6.973-1.162
			c-2.277-0.773-4.1-2.026-5.467-3.759c-2.645-3.37-3.965-7.973-3.965-13.806c0-5.741,1.32-10.342,3.965-13.807
			c2.734-3.554,6.24-5.33,10.525-5.33c2.277,0,4.281,0.457,6.014,1.366c1.822,1.094,3.281,2.508,4.375,4.237V383.07z
			 M445.176,411.775c0,3.646,0.684,6.424,2.051,8.338c1.367,1.914,3.326,2.87,5.879,2.87c2.459,0,4.373-0.956,5.74-2.87
			c1.275-1.914,1.914-4.692,1.914-8.338c0-3.281-0.684-5.878-2.051-7.792c-1.459-1.821-3.418-2.733-5.877-2.733
			c-2.371,0-4.238,0.957-5.605,2.87C445.859,405.944,445.176,408.494,445.176,411.775z"/>
		<path style="fill:#818282;" d="M473.094,430.229v-17.633c0-3.555,0.523-6.538,1.572-8.954c1.047-2.413,2.482-4.35,4.307-5.809
			c1.729-1.367,3.758-2.369,6.082-3.008c2.324-0.637,4.717-0.957,7.176-0.957c0.182,0,0.41,0,0.684,0c0.273,0,0.5,0,0.684,0v9.705
			h-3.145c-2.643,0-4.602,0.639-5.877,1.914c-1.277,1.277-1.914,3.28-1.914,6.015v18.727H473.094z"/>
		<path style="fill:#818282;" d="M500.465,426.948c-1.914-1.641-3.279-3.849-4.1-6.63c-0.82-2.778-1.23-5.673-1.23-8.68
			c0-2.461,0.342-4.921,1.025-7.382c0.684-2.46,1.754-4.511,3.211-6.15c2.369-2.734,5.422-4.352,9.158-4.853
			c3.736-0.5,7.109-0.205,10.115,0.888c3.463,1.367,6.016,3.738,7.656,7.108c1.547,3.007,2.322,6.517,2.322,10.525
			c0,2.917-0.32,5.423-0.955,7.518c-0.639,2.098-1.459,3.875-2.461,5.331c-2.188,3.008-4.969,4.876-8.338,5.604
			c-3.008,0.82-6.039,0.889-9.09,0.205C504.725,429.75,502.287,428.588,500.465,426.948z M507.027,402.891
			c-1.914,2.097-2.781,5.218-2.598,9.363c0.182,4.147,0.957,7.039,2.324,8.68c0.547,0.73,1.502,1.346,2.869,1.846
			c1.367,0.501,2.756,0.546,4.17,0.136c1.412-0.409,2.666-1.435,3.76-3.075c1.092-1.641,1.684-4.282,1.775-7.928
			c0-3.281-0.525-5.741-1.57-7.382c-1.049-1.64-2.256-2.686-3.623-3.143c-1.367-0.455-2.734-0.479-4.102-0.068
			C508.666,401.729,507.662,402.254,507.027,402.891z"/>
		<path style="fill:#818282;" d="M540.822,438.977c0,1.275-0.457,2.369-1.367,3.281c-0.912,0.909-2.006,1.366-3.281,1.366h-4.646
			v-34.036c0-6.377,1.865-10.73,5.604-13.054c3.736-2.324,7.791-3.485,12.166-3.485c2.277,0,4.578,0.434,6.902,1.298
			c2.324,0.867,4.17,2.119,5.537,3.76c2.733,3.554,4.1,8.111,4.1,13.669c0,5.741-1.367,10.389-4.1,13.942
			c-2.734,3.464-6.244,5.194-10.525,5.194c-2.279,0-4.285-0.41-6.016-1.23c-1.824-0.91-3.279-2.323-4.373-4.237V438.977z
			 M556.404,412.186c0-3.555-0.684-6.288-2.051-8.202c-1.365-1.913-3.326-2.87-5.877-2.87c-2.461,0-4.375,0.957-5.74,2.87
			c-1.277,1.733-1.914,4.467-1.914,8.202c0,3.464,0.684,6.061,2.051,7.791c1.365,1.914,3.324,2.871,5.877,2.871
			c2.369,0,4.238-0.957,5.604-2.871C555.721,418.063,556.404,415.466,556.404,412.186z"/>
	</g>
	<g>
		<path style="fill:#8C9799;" d="M340.756,449.772v2.349h0.081c0.45-0.864,1.04-1.539,1.769-2.025
			c0.729-0.485,1.66-0.728,2.795-0.728c0.918,0,1.75,0.225,2.497,0.675c0.747,0.45,1.246,1.134,1.499,2.052
			c0.413-0.918,1.025-1.602,1.836-2.052c0.81-0.449,1.674-0.675,2.592-0.675c3.078,0,4.617,1.629,4.617,4.887v9.45h-1.701v-9.369
			c0-1.151-0.243-2.029-0.73-2.633c-0.485-0.603-1.341-0.904-2.564-0.904c-0.738,0-1.351,0.14-1.836,0.419
			c-0.486,0.279-0.874,0.652-1.161,1.12c-0.288,0.469-0.491,1.004-0.607,1.606c-0.117,0.603-0.176,1.228-0.176,1.877v7.884h-1.701
			v-9.45c0-0.468-0.05-0.913-0.148-1.336c-0.099-0.423-0.261-0.792-0.485-1.107c-0.226-0.314-0.527-0.563-0.905-0.742
			c-0.378-0.18-0.837-0.271-1.377-0.271c-0.72,0-1.346,0.131-1.876,0.392c-0.531,0.262-0.964,0.621-1.296,1.08
			c-0.334,0.459-0.581,0.999-0.743,1.62s-0.243,1.301-0.243,2.038v7.776h-1.7v-13.932H340.756z"/>
		<path style="fill:#8C9799;" d="M364.894,444.425v2.728h-1.701v-2.728H364.894z M364.894,449.772v13.932h-1.701v-13.932H364.894z"
			/>
		<path style="fill:#8C9799;" d="M371.319,449.772v2.402h0.055c0.323-0.846,0.899-1.525,1.728-2.038
			c0.828-0.513,1.737-0.77,2.728-0.77c0.972,0,1.786,0.126,2.443,0.378c0.656,0.252,1.183,0.607,1.579,1.066
			c0.396,0.459,0.675,1.021,0.837,1.688c0.162,0.666,0.243,1.413,0.243,2.241v8.964h-1.701v-8.694c0-0.594-0.054-1.147-0.162-1.66
			c-0.108-0.513-0.297-0.959-0.566-1.337c-0.271-0.378-0.635-0.675-1.094-0.891c-0.459-0.216-1.03-0.324-1.715-0.324
			c-0.684,0-1.292,0.122-1.822,0.365c-0.531,0.242-0.982,0.576-1.35,0.998c-0.369,0.424-0.657,0.928-0.864,1.513
			c-0.207,0.585-0.32,1.22-0.338,1.903v8.127h-1.701v-13.932H371.319z"/>
		<path style="fill:#8C9799;" d="M386.885,459.1c0.171,0.657,0.445,1.247,0.824,1.769c0.378,0.522,0.854,0.954,1.431,1.296
			c0.576,0.342,1.269,0.513,2.079,0.513c1.242,0,2.214-0.323,2.916-0.972c0.702-0.648,1.188-1.512,1.458-2.592h1.701
			c-0.36,1.584-1.022,2.808-1.985,3.672c-0.963,0.864-2.326,1.296-4.09,1.296c-1.099,0-2.048-0.193-2.849-0.58
			c-0.801-0.388-1.454-0.918-1.958-1.594c-0.504-0.675-0.877-1.458-1.12-2.349c-0.243-0.891-0.364-1.831-0.364-2.821
			c0-0.918,0.121-1.818,0.364-2.7c0.243-0.882,0.616-1.669,1.12-2.362c0.504-0.693,1.157-1.251,1.958-1.674
			c0.801-0.423,1.75-0.635,2.849-0.635c1.115,0,2.069,0.225,2.861,0.675c0.792,0.45,1.436,1.04,1.931,1.768
			c0.495,0.729,0.851,1.566,1.066,2.511c0.217,0.945,0.307,1.904,0.271,2.876h-10.719
			C386.629,457.809,386.714,458.442,386.885,459.1z M395.309,453.902c-0.207-0.594-0.499-1.121-0.877-1.58
			c-0.378-0.459-0.837-0.827-1.377-1.106c-0.54-0.279-1.152-0.419-1.836-0.419c-0.702,0-1.323,0.14-1.863,0.419
			c-0.54,0.279-0.999,0.647-1.377,1.106c-0.378,0.459-0.68,0.99-0.904,1.594c-0.226,0.602-0.374,1.22-0.445,1.849h9.018
			C395.628,455.117,395.516,454.496,395.309,453.902z"/>
		<path style="fill:#8C9799;" d="M402.693,449.772v3.267h0.055c0.432-1.134,1.102-2.007,2.011-2.619
			c0.909-0.611,1.993-0.891,3.254-0.837v1.701c-0.774-0.036-1.477,0.067-2.106,0.311c-0.63,0.243-1.174,0.59-1.633,1.039
			c-0.459,0.45-0.815,0.985-1.066,1.606c-0.253,0.621-0.379,1.301-0.379,2.039v7.425h-1.7v-13.932H402.693z"/>
		<path style="fill:#8C9799;" d="M411.468,451.931c0.288-0.594,0.68-1.079,1.175-1.458c0.494-0.378,1.075-0.656,1.741-0.837
			c0.666-0.18,1.404-0.27,2.214-0.27c0.612,0,1.224,0.059,1.836,0.176c0.612,0.117,1.161,0.337,1.647,0.661
			c0.485,0.324,0.881,0.778,1.188,1.363c0.306,0.585,0.459,1.346,0.459,2.281v7.398c0,0.685,0.333,1.026,0.999,1.026
			c0.198,0,0.378-0.036,0.54-0.108v1.431c-0.198,0.037-0.374,0.063-0.526,0.081c-0.153,0.019-0.347,0.027-0.581,0.027
			c-0.432,0-0.778-0.059-1.039-0.176c-0.262-0.116-0.464-0.283-0.607-0.499c-0.145-0.216-0.238-0.473-0.283-0.77
			c-0.045-0.297-0.067-0.625-0.067-0.985h-0.055c-0.306,0.45-0.616,0.851-0.931,1.201c-0.315,0.351-0.667,0.644-1.054,0.878
			c-0.387,0.233-0.828,0.413-1.322,0.54c-0.496,0.125-1.085,0.188-1.769,0.188c-0.648,0-1.256-0.077-1.823-0.229
			c-0.566-0.152-1.062-0.396-1.484-0.728c-0.424-0.333-0.756-0.757-0.999-1.27s-0.365-1.12-0.365-1.822
			c0-0.972,0.217-1.732,0.648-2.281c0.432-0.549,1.003-0.968,1.715-1.256c0.711-0.288,1.512-0.49,2.402-0.607
			c0.892-0.117,1.796-0.23,2.714-0.338c0.359-0.035,0.675-0.081,0.945-0.135c0.27-0.054,0.494-0.148,0.675-0.283
			c0.18-0.135,0.319-0.319,0.418-0.554c0.099-0.233,0.148-0.54,0.148-0.918c0-0.576-0.094-1.049-0.283-1.418
			c-0.189-0.368-0.45-0.661-0.783-0.877c-0.333-0.216-0.72-0.364-1.16-0.445c-0.441-0.081-0.914-0.122-1.418-0.122
			c-1.08,0-1.962,0.257-2.646,0.77c-0.684,0.514-1.044,1.337-1.079,2.471h-1.701C411.009,453.228,411.18,452.525,411.468,451.931z
			 M419.973,456.089c-0.107,0.198-0.315,0.343-0.621,0.433c-0.306,0.09-0.576,0.152-0.81,0.188
			c-0.721,0.126-1.463,0.239-2.228,0.338c-0.766,0.099-1.463,0.247-2.093,0.445c-0.63,0.198-1.147,0.481-1.553,0.851
			c-0.404,0.369-0.607,0.895-0.607,1.579c0,0.433,0.086,0.814,0.257,1.147c0.171,0.334,0.4,0.621,0.688,0.864
			c0.288,0.243,0.621,0.428,0.999,0.554c0.378,0.126,0.765,0.188,1.161,0.188c0.647,0,1.268-0.099,1.863-0.297
			c0.594-0.197,1.11-0.485,1.552-0.863c0.441-0.379,0.792-0.838,1.054-1.378c0.261-0.539,0.391-1.151,0.391-1.836v-2.214H419.973z"
			/>
		<path style="fill:#8C9799;" d="M428.343,444.425v19.278h-1.7v-19.278H428.343z"/>
		<path style="fill:#8C9799;" d="M442.436,451.931c0.288-0.594,0.68-1.079,1.175-1.458c0.495-0.378,1.075-0.656,1.741-0.837
			c0.666-0.18,1.404-0.27,2.214-0.27c0.612,0,1.225,0.059,1.836,0.176c0.612,0.117,1.161,0.337,1.647,0.661
			c0.486,0.324,0.882,0.778,1.189,1.363c0.306,0.585,0.459,1.346,0.459,2.281v7.398c0,0.685,0.332,1.026,0.999,1.026
			c0.197,0,0.378-0.036,0.539-0.108v1.431c-0.198,0.037-0.373,0.063-0.526,0.081c-0.152,0.019-0.347,0.027-0.58,0.027
			c-0.432,0-0.779-0.059-1.04-0.176c-0.261-0.116-0.463-0.283-0.608-0.499c-0.143-0.216-0.238-0.473-0.283-0.77
			c-0.045-0.297-0.067-0.625-0.067-0.985h-0.054c-0.307,0.45-0.617,0.851-0.932,1.201c-0.315,0.351-0.666,0.644-1.053,0.878
			c-0.388,0.233-0.828,0.413-1.323,0.54c-0.495,0.125-1.085,0.188-1.768,0.188c-0.649,0-1.256-0.077-1.822-0.229
			c-0.567-0.152-1.063-0.396-1.485-0.728c-0.423-0.333-0.756-0.757-0.999-1.27c-0.243-0.513-0.364-1.12-0.364-1.822
			c0-0.972,0.216-1.732,0.647-2.281c0.433-0.549,1.004-0.968,1.715-1.256c0.711-0.288,1.512-0.49,2.403-0.607
			c0.891-0.117,1.795-0.23,2.713-0.338c0.36-0.035,0.675-0.081,0.945-0.135c0.27-0.054,0.495-0.148,0.675-0.283
			c0.18-0.135,0.319-0.319,0.419-0.554c0.099-0.233,0.148-0.54,0.148-0.918c0-0.576-0.095-1.049-0.284-1.418
			c-0.189-0.368-0.45-0.661-0.782-0.877c-0.334-0.216-0.721-0.364-1.161-0.445c-0.441-0.081-0.914-0.122-1.418-0.122
			c-1.08,0-1.962,0.257-2.646,0.77c-0.685,0.514-1.044,1.337-1.08,2.471h-1.701C441.977,453.228,442.148,452.525,442.436,451.931z
			 M450.941,456.089c-0.107,0.198-0.314,0.343-0.62,0.433c-0.307,0.09-0.577,0.152-0.811,0.188c-0.72,0.126-1.463,0.239-2.227,0.338
			c-0.766,0.099-1.463,0.247-2.093,0.445c-0.63,0.198-1.147,0.481-1.552,0.851c-0.405,0.369-0.607,0.895-0.607,1.579
			c0,0.433,0.085,0.814,0.256,1.147c0.171,0.334,0.4,0.621,0.689,0.864c0.288,0.243,0.621,0.428,0.999,0.554
			c0.378,0.126,0.765,0.188,1.161,0.188c0.648,0,1.27-0.099,1.863-0.297c0.594-0.197,1.111-0.485,1.553-0.863
			c0.44-0.379,0.791-0.838,1.053-1.378c0.261-0.539,0.392-1.151,0.392-1.836v-2.214H450.941z"/>
		<path style="fill:#8C9799;" d="M468.141,468.833v-7.776h-0.054c-0.181,0.505-0.436,0.945-0.77,1.323
			c-0.333,0.378-0.716,0.693-1.147,0.945c-0.432,0.252-0.896,0.44-1.391,0.567c-0.495,0.125-1.004,0.188-1.525,0.188
			c-1.063,0-1.984-0.193-2.768-0.58c-0.783-0.388-1.436-0.918-1.957-1.594c-0.523-0.675-0.909-1.458-1.161-2.349
			c-0.253-0.891-0.378-1.831-0.378-2.821c0-0.99,0.125-1.931,0.378-2.821c0.252-0.892,0.639-1.675,1.161-2.35
			c0.521-0.675,1.174-1.21,1.957-1.606c0.783-0.395,1.705-0.594,2.768-0.594c0.504,0,1.013,0.072,1.525,0.216
			c0.513,0.145,0.994,0.352,1.444,0.621c0.45,0.27,0.851,0.59,1.202,0.959c0.351,0.369,0.616,0.787,0.796,1.255h0.054v-2.645h1.566
			v19.061H468.141z M458.947,458.884c0.171,0.711,0.441,1.346,0.81,1.903c0.368,0.559,0.841,1.013,1.417,1.363
			c0.576,0.352,1.27,0.526,2.079,0.526c0.899,0,1.66-0.175,2.281-0.526c0.621-0.351,1.125-0.805,1.513-1.363
			c0.387-0.558,0.665-1.192,0.837-1.903c0.171-0.711,0.256-1.427,0.256-2.146c0-0.72-0.085-1.436-0.256-2.146
			c-0.172-0.711-0.45-1.346-0.837-1.903c-0.388-0.558-0.892-1.013-1.513-1.364c-0.621-0.351-1.382-0.526-2.281-0.526
			c-0.81,0-1.503,0.176-2.079,0.526c-0.576,0.352-1.049,0.807-1.417,1.364c-0.369,0.558-0.64,1.192-0.81,1.903
			c-0.171,0.711-0.257,1.427-0.257,2.146C458.69,457.457,458.776,458.173,458.947,458.884z"/>
		<path style="fill:#8C9799;" d="M484.286,463.703v-2.511h-0.054c-0.45,0.936-1.103,1.651-1.958,2.146
			c-0.854,0.494-1.805,0.742-2.848,0.742c-0.883,0-1.634-0.121-2.255-0.364c-0.621-0.243-1.125-0.59-1.512-1.04
			c-0.388-0.449-0.671-0.999-0.851-1.646c-0.181-0.648-0.271-1.386-0.271-2.214v-9.045h1.701v9.071
			c0.036,1.261,0.328,2.214,0.878,2.862c0.549,0.648,1.498,0.972,2.848,0.972c0.738,0,1.368-0.157,1.891-0.472
			c0.522-0.315,0.954-0.733,1.296-1.256c0.342-0.522,0.594-1.12,0.756-1.796c0.162-0.675,0.243-1.363,0.243-2.066v-7.316h1.701
			v13.932H484.286z"/>
		<path style="fill:#8C9799;" d="M490.9,451.931c0.288-0.594,0.68-1.079,1.175-1.458c0.495-0.378,1.075-0.656,1.741-0.837
			c0.666-0.18,1.404-0.27,2.214-0.27c0.612,0,1.225,0.059,1.836,0.176c0.612,0.117,1.161,0.337,1.648,0.661
			c0.486,0.324,0.882,0.778,1.188,1.363c0.306,0.585,0.459,1.346,0.459,2.281v7.398c0,0.685,0.332,1.026,0.999,1.026
			c0.197,0,0.378-0.036,0.539-0.108v1.431c-0.198,0.037-0.373,0.063-0.526,0.081c-0.152,0.019-0.347,0.027-0.58,0.027
			c-0.432,0-0.779-0.059-1.04-0.176c-0.261-0.116-0.463-0.283-0.607-0.499c-0.143-0.216-0.238-0.473-0.283-0.77
			c-0.045-0.297-0.067-0.625-0.067-0.985h-0.054c-0.307,0.45-0.617,0.851-0.932,1.201c-0.315,0.351-0.666,0.644-1.053,0.878
			c-0.388,0.233-0.828,0.413-1.323,0.54c-0.495,0.125-1.085,0.188-1.769,0.188c-0.648,0-1.256-0.077-1.822-0.229
			c-0.567-0.152-1.063-0.396-1.485-0.728c-0.423-0.333-0.756-0.757-0.999-1.27c-0.243-0.513-0.364-1.12-0.364-1.822
			c0-0.972,0.216-1.732,0.647-2.281c0.433-0.549,1.004-0.968,1.715-1.256c0.711-0.288,1.512-0.49,2.403-0.607
			c0.891-0.117,1.795-0.23,2.713-0.338c0.36-0.035,0.675-0.081,0.945-0.135c0.27-0.054,0.495-0.148,0.675-0.283
			c0.18-0.135,0.319-0.319,0.419-0.554c0.099-0.233,0.148-0.54,0.148-0.918c0-0.576-0.095-1.049-0.284-1.418
			c-0.189-0.368-0.45-0.661-0.782-0.877c-0.334-0.216-0.721-0.364-1.161-0.445c-0.441-0.081-0.914-0.122-1.418-0.122
			c-1.08,0-1.962,0.257-2.646,0.77c-0.685,0.514-1.044,1.337-1.08,2.471h-1.701C490.441,453.228,490.612,452.525,490.9,451.931z
			 M499.405,456.089c-0.107,0.198-0.314,0.343-0.62,0.433c-0.307,0.09-0.577,0.152-0.811,0.188c-0.72,0.126-1.463,0.239-2.227,0.338
			c-0.766,0.099-1.463,0.247-2.093,0.445c-0.63,0.198-1.148,0.481-1.552,0.851c-0.405,0.369-0.607,0.895-0.607,1.579
			c0,0.433,0.085,0.814,0.256,1.147c0.171,0.334,0.4,0.621,0.688,0.864c0.288,0.243,0.621,0.428,0.999,0.554
			c0.378,0.126,0.765,0.188,1.161,0.188c0.648,0,1.27-0.099,1.863-0.297c0.594-0.197,1.111-0.485,1.553-0.863
			c0.44-0.379,0.791-0.838,1.053-1.378c0.261-0.539,0.392-1.151,0.392-1.836v-2.214H499.405z"/>
	</g>
	<g>
		<radialGradient id="SVGID_1_" cx="462.5548" cy="272.5774" r="141.21" gradientUnits="userSpaceOnUse">
			<stop  offset="0" style="stop-color:#3C7DB7"/>
			<stop  offset="0.4909" style="stop-color:#59C5E3"/>
			<stop  offset="1" style="stop-color:#6EE6E5"/>
		</radialGradient>
		<path style="fill:url(#SVGID_1_);" d="M391.586,155.522c-9.823,9.123-21.156,20.971-32.435,35.566
			c25.063-26.638,46.364-1.523,61.793,17.168c15.299,15.299,39.85,48.172,39.85,70.181c0,9.291-3.188,17.832-8.52,24.608
			c18.267-18.161,55.268-61.063,41.367-96.884c-14.675-21.716-30.329-38.556-43.339-50.639
			C433.761,140.158,408.129,140.158,391.586,155.522z"/>
		
			<radialGradient id="SVGID_00000157278324221198813720000016991323159315630526_" cx="376.0906" cy="315.1001" r="152.6632" gradientUnits="userSpaceOnUse">
			<stop  offset="0" style="stop-color:#3C7DB7"/>
			<stop  offset="0.4909" style="stop-color:#59C5E3"/>
			<stop  offset="1" style="stop-color:#6EE6E5"/>
		</radialGradient>
		<path style="fill:url(#SVGID_00000157278324221198813720000016991323159315630526_);" d="M506.768,355.021
			c21.576-6.645,34.392-28.842,29.357-50.85c-4.95-21.641-14.253-50.571-31.702-80.795c-3.493-6.051-7.108-11.778-10.781-17.214
			c13.9,35.821-23.101,78.723-41.367,96.884c-7.296,9.276-18.613,15.24-31.33,15.24c-20.83,0-37.917-15.986-39.687-36.357
			c0.067,25.482,9.688,76.94,57.817,85.453C466.149,365.668,489.33,360.391,506.768,355.021z"/>
		
			<radialGradient id="SVGID_00000127036472696073019710000003793602560806871231_" cx="393.1004" cy="187.5296" r="184.2899" gradientUnits="userSpaceOnUse">
			<stop  offset="0" style="stop-color:#3C7DB7"/>
			<stop  offset="0.4909" style="stop-color:#59C5E3"/>
			<stop  offset="1" style="stop-color:#6EE6E5"/>
		</radialGradient>
		<path style="fill:url(#SVGID_00000127036472696073019710000003793602560806871231_);" d="M381.257,281.928
			c-0.101-1.152-0.162-2.314-0.162-3.491c0-22.009,24.55-54.881,39.849-70.181c-15.429-18.691-36.729-43.806-61.793-17.168
			c-7.397,9.573-14.773,20.316-21.685,32.287c-17.449,30.224-26.752,59.154-31.702,80.795c-5.034,22.009,7.782,44.206,29.358,50.85
			c21.218,6.534,50.923,12.942,85.822,12.942c6.218,0,12.261-0.211,18.13-0.582C390.945,358.868,381.324,307.41,381.257,281.928z"/>
	</g>
</g>
</svg>
